<?xml version="1.0" standalone="no"?>
<!DOCTYPE svg PUBLIC "-//W3C//DTD SVG 20010904//EN"
 "http://www.w3.org/TR/2001/REC-SVG-20010904/DTD/svg10.dtd">
<svg version="1.0" xmlns="http://www.w3.org/2000/svg"
 width="600.000000pt" height="213.000000pt" viewBox="0 0 600.000000 213.000000"
 preserveAspectRatio="xMidYMid meet">

<g transform="translate(0.000000,213.000000) scale(0.100000,-0.100000)"
fill="#000000" stroke="none">
<path d="M470 1580 c-6 -30 -13 -61 -15 -67 -3 -10 16 -13 76 -13 l81 0 -6
-37 c-4 -21 -13 -65 -21 -98 -22 -92 -85 -381 -85 -389 0 -4 32 -6 72 -4 l72
3 8 35 c4 19 28 130 53 245 25 116 48 218 51 228 5 14 18 17 84 17 l78 0 11
50 c6 28 11 57 11 65 0 12 -40 15 -230 17 l-230 3 -10 -55z"/>
<path d="M991 1602 c-5 -20 -28 -125 -51 -232 -24 -107 -53 -241 -65 -297
l-22 -103 73 0 c68 0 74 2 79 23 3 12 14 60 23 107 l19 85 32 0 c33 0 33 -1
71 -105 l37 -105 81 -3 82 -3 -11 28 c-31 78 -79 216 -77 218 2 1 17 7 34 14
70 28 133 134 141 235 4 52 2 66 -19 96 -38 55 -95 71 -270 76 l-147 3 -10
-37z m267 -118 c28 -20 30 -76 2 -121 -23 -38 -73 -56 -140 -51 l-46 3 20 93
19 92 61 0 c40 0 70 -6 84 -16z"/>
<path d="M1691 1621 c-56 -108 -176 -340 -245 -473 -47 -92 -86 -169 -86 -172
0 -3 31 -6 70 -6 l70 0 35 70 35 70 105 0 104 0 7 -70 7 -70 74 0 74 0 -5 53
c-6 47 -35 349 -52 534 l-6 71 -47 7 c-74 9 -131 4 -140 -14z m72 -291 l5 -95
-64 3 c-35 2 -64 6 -64 8 0 2 24 51 52 109 60 120 62 119 71 -25z"/>
<path d="M2276 1629 c-3 -8 -21 -93 -41 -189 -53 -254 -63 -287 -97 -315 -24
-20 -40 -25 -87 -25 l-57 0 -16 -65 -15 -65 81 0 c175 1 249 74 300 296 53
237 77 356 72 361 -3 3 -34 8 -70 10 -51 4 -67 3 -70 -8z"/>
<path d="M2500 1632 c0 -2 -29 -135 -64 -295 -36 -161 -68 -309 -71 -329 l-7
-38 205 0 204 0 12 57 c6 31 11 60 11 65 0 4 -59 8 -131 8 l-131 0 7 33 c4 17
11 49 16 70 l10 37 113 0 113 0 11 51 c18 78 24 74 -98 74 -67 0 -110 4 -110
10 1 6 7 35 14 65 l12 55 126 3 126 3 14 62 c8 34 13 64 11 67 -5 5 -393 7
-393 2z"/>
<path d="M2940 1599 c-5 -19 -13 -49 -16 -67 l-6 -32 82 0 82 0 -4 -27 c-3
-16 -28 -132 -57 -260 -28 -128 -51 -234 -51 -237 0 -4 33 -6 73 -6 l73 0 13
63 c11 55 82 385 96 445 5 20 11 22 84 22 l78 0 6 45 c4 25 9 55 12 67 l6 23
-231 0 -231 0 -9 -36z"/>
<path d="M3440 1585 c-7 -27 -14 -58 -17 -67 -4 -16 4 -18 77 -18 73 0 81 -2
76 -17 -3 -10 -28 -121 -56 -248 -28 -126 -53 -238 -56 -247 -5 -16 3 -18 70
-18 l75 0 17 78 c9 42 35 160 58 262 l41 185 80 5 80 5 12 50 c6 28 12 57 12
65 1 13 -31 15 -229 15 l-229 0 -11 -50z"/>
<path d="M4050 1608 c-104 -54 -153 -136 -194 -325 -21 -94 -20 -186 0 -229
26 -54 88 -85 182 -91 199 -14 315 89 373 332 29 120 31 219 4 265 -35 58 -75
74 -195 78 -103 4 -106 3 -170 -30z m218 -133 c27 -32 26 -59 -10 -200 -33
-133 -73 -175 -167 -175 -100 0 -122 43 -91 178 41 184 86 237 194 228 39 -3
55 -9 74 -31z"/>
<path d="M4495 1608 c18 -58 17 -166 -5 -272 -45 -225 -95 -314 -216 -392 -92
-59 -124 -62 -687 -63 l-358 -1 20 -29 c23 -32 5 -30 359 -56 101 -7 186 -16
190 -20 18 -18 -42 -24 -247 -25 -124 0 -226 -2 -228 -3 -1 -2 8 -16 21 -31
l23 -29 214 -17 c133 -11 229 -23 254 -33 38 -15 39 -15 10 -14 -71 2 -435
-16 -435 -22 0 -4 7 -17 16 -29 13 -19 24 -22 82 -22 37 0 131 -3 209 -7 l142
-6 6 -27 c3 -15 21 -42 40 -60 30 -29 43 -34 94 -38 79 -6 121 10 186 70 31
28 57 49 58 47 1 -2 11 -22 22 -43 29 -56 74 -78 152 -74 50 3 71 10 112 38
58 40 105 100 118 151 l9 34 117 3 117 3 -10 -26 c-16 -42 -11 -87 13 -129 58
-101 204 -100 310 2 43 41 77 100 77 132 0 18 6 20 81 20 87 0 135 15 157 51
7 11 28 104 47 206 l34 187 -19 44 c-25 56 -186 288 -218 313 -21 16 -41 19
-146 19 -169 0 -165 -2 -168 79 -3 66 -3 66 -38 78 -23 8 -118 12 -279 12
l-243 1 7 -22z m877 -348 l68 -95 -151 -3 c-84 -1 -154 0 -157 2 -5 5 16 159
25 182 4 11 22 14 76 12 l71 -3 68 -95z m-189 -541 c102 -110 -97 -306 -204
-200 -23 24 -29 38 -29 74 0 71 48 126 140 160 27 10 65 -3 93 -34z m-1018 8
c83 -71 -2 -237 -124 -239 -107 -1 -145 109 -68 195 61 69 142 88 192 44z
m383 -2 c37 -31 47 -75 26 -123 -30 -72 -85 -112 -154 -112 -80 0 -125 83 -86
158 48 92 152 129 214 77z"/>
<path d="M5046 654 c-42 -43 -30 -94 21 -94 31 0 73 42 73 73 0 51 -51 63 -94
21z"/>
<path d="M4034 655 c-19 -19 -24 -34 -22 -58 3 -28 7 -32 34 -35 57 -6 105 65
69 102 -23 23 -52 20 -81 -9z"/>
<path d="M4416 649 c-28 -33 -33 -58 -14 -77 33 -33 108 7 108 59 0 56 -54 66
-94 18z"/>
<path d="M2593 809 c-44 -13 -73 -53 -73 -100 0 -36 3 -40 51 -64 64 -33 64
-59 2 -63 -23 -2 -51 2 -62 7 -16 9 -21 6 -30 -20 -6 -17 -9 -35 -6 -39 8 -13
82 -18 122 -10 97 22 116 147 26 174 -36 11 -46 31 -27 51 17 16 44 16 85 0
12 -5 19 2 27 24 6 17 8 32 4 35 -18 10 -90 14 -119 5z"/>
<path d="M2892 809 c-37 -11 -72 -60 -72 -100 0 -29 18 -48 68 -73 47 -24 40
-50 -15 -54 -23 -2 -51 2 -62 8 -18 9 -21 6 -29 -22 -5 -18 -6 -37 -2 -41 4
-5 35 -9 67 -10 70 -2 106 17 130 67 24 51 11 83 -42 107 -50 22 -57 44 -20
61 18 8 32 8 55 -2 17 -7 32 -11 34 -9 9 11 15 58 8 63 -19 12 -89 15 -120 5z"/>
<path d="M906 683 c-15 -71 -29 -136 -32 -145 -5 -16 4 -18 95 -18 l101 0 0
30 0 30 -61 0 c-52 0 -60 2 -55 16 3 9 6 22 6 29 0 10 17 15 58 17 50 3 57 6
60 26 3 20 0 22 -51 22 l-54 0 5 30 c4 30 5 30 67 30 48 0 64 4 69 16 16 41
10 44 -87 44 l-94 0 -27 -127z"/>
<path d="M1255 739 l25 -71 -60 -72 -59 -71 31 -3 c28 -3 38 3 74 44 l41 48
15 -45 c13 -40 18 -44 51 -47 l36 -3 -25 76 -26 76 44 52 c78 93 75 87 35 87
-31 0 -41 -6 -71 -45 -37 -49 -37 -49 -55 8 -11 33 -16 37 -46 37 l-34 0 24
-71z"/>
<path d="M1567 738 c-30 -133 -47 -209 -47 -214 0 -2 15 -4 34 -4 31 0 34 3
42 42 9 41 11 43 55 49 26 4 56 12 68 19 32 17 61 70 61 112 0 53 -26 68 -121
68 l-76 0 -16 -72z m141 -16 c5 -33 -15 -52 -54 -52 -37 0 -37 1 -28 49 6 30
9 32 43 29 29 -2 37 -8 39 -26z"/>
<path d="M1875 678 c-15 -73 -30 -139 -32 -145 -4 -9 6 -13 30 -13 32 0 36 3
42 33 12 59 17 68 32 65 9 -2 23 -23 33 -48 16 -41 21 -45 55 -48 34 -3 36 -2
30 20 -4 13 -14 36 -22 52 -14 28 -14 30 16 53 33 26 54 83 44 121 -8 31 -40
42 -127 42 l-73 0 -28 -132z m157 42 c-3 -31 -27 -50 -64 -50 -26 0 -28 3 -22
28 11 52 12 53 51 50 34 -3 38 -6 35 -28z"/>
<path d="M2240 806 c0 -4 -45 -217 -55 -264 -6 -23 -5 -23 92 -20 l98 3 3 28
c3 27 3 27 -59 27 -59 0 -61 1 -55 23 3 12 6 25 6 30 0 4 25 7 55 7 30 0 55 4
55 9 0 5 3 16 6 25 5 13 -2 16 -45 16 -50 0 -51 1 -51 30 l0 30 64 0 c58 0 64
2 70 23 3 12 6 25 6 30 0 4 -43 7 -95 7 -52 0 -95 -2 -95 -4z"/>
</g>
</svg>
